Coordinates
version=1
nRows=14
nColumns=40
inDegrees=yes

Units are S.I. units (second, meters, Newtons, ...)
If the header above contains a line with 'inDegrees', this indicates whether rotational values are in degrees (yes) or radians (no).

endheader
time	pelvis_tilt	pelvis_list	pelvis_rotation	pelvis_tx	pelvis_ty	pelvis_tz	hip_flexion_r	hip_adduction_r	hip_rotation_r	knee_angle_r	knee_angle_r_beta	ankle_angle_r	subtalar_angle_r	mtp_angle_r	hip_flexion_l	hip_adduction_l	hip_rotation_l	knee_angle_l	knee_angle_l_beta	ankle_angle_l	subtalar_angle_l	mtp_angle_l	lumbar_extension	lumbar_bending	lumbar_rotation	arm_flex_r	arm_add_r	arm_rot_r	elbow_flex_r	pro_sup_r	wrist_flex_r	wrist_dev_r	arm_flex_l	arm_add_l	arm_rot_l	elbow_flex_l	pro_sup_l	wrist_flex_l	wrist_dev_l
      2.83500000	    -36.69650960	     -1.27917472	     -1.56898380	     -0.40275645	      0.57077251	     -0.92377436	    102.54569779	    -20.96470462	     -0.87907996	    103.32127956	      1.80329652	     37.14302135	      0.00000000	      0.00000000	    103.62289231	    -21.99042989	      4.82735051	    104.72885191	      1.82786329	     38.16578144	      0.00000000	      0.00000000	    -21.37509373	     -0.26842802	     -6.68879772	      1.67734324	    -48.69745214	     65.29145937	     92.41326742	     87.53358346	      0.00000000	      0.00000000	    -27.23549424	    -43.26528950	     34.41209412	     90.69865967	     87.57474793	      0.00000000	      0.00000000
      2.84000000	    -36.16834085	     -1.36087256	     -0.98637039	     -0.39985299	      0.57633257	     -0.92493315	    101.23848250	    -21.65624565	     -1.10090150	    102.75723104	      1.79345201	     37.17703140	      0.00000000	      0.00000000	    102.21601502	    -21.24296328	      4.55195063	    103.99934706	      1.81513103	     38.26835631	      0.00000000	      0.00000000	    -21.27318635	      0.03406264	     -7.08036075	      1.83024047	    -48.61980736	     65.26790630	     92.00041610	     87.52793787	      0.00000000	      0.00000000	    -26.87076689	    -43.06425471	     34.47745109	     90.28460128	     87.57313063	      0.00000000	      0.00000000
      2.84500000	    -36.16125479	     -1.27671833	     -1.03637677	     -0.39813021	      0.58104506	     -0.92463501	    100.59060437	    -21.45996990	     -1.18414876	    102.01863813	      1.78056113	     37.05681749	      0.00000000	      0.00000000	    101.46208074	    -21.16399616	      4.40124072	    103.25038760	      1.80205922	     38.15586385	      0.00000000	      0.00000000	    -20.56798986	     -0.08723241	     -7.01504695	      1.88477788	    -48.55173888	     65.19850823	     91.87638743	     87.52055133	      0.00000000	      0.00000000	    -26.82984150	    -43.07793863	     34.40863857	     90.21439957	     87.56349766	      0.00000000	      0.00000000
      2.85000000	    -35.63766264	     -1.22730005	     -0.46917272	     -0.39477381	      0.58682942	     -0.92585073	     99.28085472	    -22.17012831	     -1.37516393	    101.42491247	      1.77019867	     37.09193548	      0.00000000	      0.00000000	     99.95511811	    -20.44072221	      3.97176535	    102.47929350	      1.78860109	     38.28946231	      0.00000000	      0.00000000	    -20.56636996	      0.10859022	     -7.37410321	      1.56322481	    -48.35110410	     64.67410467	     91.23208539	     87.49533376	      0.00000000	      0.00000000	    -26.60965215	    -42.75126795	     34.30641394	     89.67731954	     87.54439128	      0.00000000	      0.00000000
      2.85500000	    -35.50919542	     -1.19777273	     -0.56249858	     -0.39255063	      0.59211622	     -0.92542805	     98.40143398	    -21.95327313	     -1.60301386	    100.64429622	      1.75657434	     36.92810803	      0.00000000	      0.00000000	     99.03583502	    -20.45225981	      3.80015126	    101.67311562	      1.77453063	     38.16590908	      0.00000000	      0.00000000	    -19.81789999	      0.00239417	     -7.35902293	      1.61128705	    -48.22453938	     64.52044906	     91.00924554	     87.48910251	      0.00000000	      0.00000000	    -26.66515329	    -42.76873221	     34.24861490	     89.60261268	     87.53925642	      0.00000000	      0.00000000
      2.86000000	    -35.44276977	     -1.11987928	     -0.48162152	     -0.39051879	      0.59745086	     -0.92558830	     97.61151801	    -21.92271132	     -1.71400314	     99.81055177	      1.74202276	     36.75741892	      0.00000000	      0.00000000	     98.13833682	    -20.20877819	      3.54347956	    100.82443223	      1.75971831	     38.04581074	      0.00000000	      0.00000000	    -19.20372861	     -0.02731958	     -7.37945207	      1.48322854	    -48.16403978	     64.35305961	     90.70959508	     87.47981598	      0.00000000	      0.00000000	    -26.67732072	    -42.70107734	     34.12862856	     89.53452286	     87.52876831	      0.00000000	      0.00000000
      2.86500000	    -35.03441491	     -1.05418447	      0.38270951	     -0.38752903	      0.60344129	     -0.92740000	     96.43275087	    -23.00092847	     -1.91278789	     99.14621831	      1.73042795	     36.75865305	      0.00000000	      0.00000000	     96.72765753	    -19.09245476	      3.12533168	     99.88152549	      1.74326148	     38.17864683	      0.00000000	      0.00000000	    -18.83135680	      0.21304334	     -8.23673338	      1.24342244	    -47.80029392	     63.68862944	     89.83535870	     87.46617938	      0.00000000	      0.00000000	    -26.66205742	    -42.38082159	     33.91357382	     89.11539962	     87.51479673	      0.00000000	      0.00000000
      2.87000000	    -34.97047043	     -0.84151555	      0.13834336	     -0.38507060	      0.60894587	     -0.92661205	     95.65619447	    -22.58519543	     -1.97737895	     98.30186923	      1.71569128	     36.68230049	      0.00000000	      0.00000000	     95.73438767	    -19.31433253	      2.71480693	     99.01223060	      1.72808942	     38.18986658	      0.00000000	      0.00000000	    -18.06217925	     -0.15255206	     -8.07987210	      0.83394079	    -47.43707684	     63.02314817	     89.30092528	     87.47374296	      0.00000000	      0.00000000	    -26.98984296	    -42.31300064	     33.46419099	     89.06111848	     87.49565471	      0.00000000	      0.00000000
      2.87500000	    -34.74282637	     -0.80647453	      0.16609517	     -0.38228328	      0.61492789	     -0.92649055	     94.58538751	    -22.57471704	     -2.29628966	     97.44019293	      1.70065219	     36.46917738	      0.00000000	      0.00000000	     94.60925150	    -19.20482906	      2.45707206	     98.10041611	      1.71217526	     38.08783794	      0.00000000	      0.00000000	    -17.43584068	     -0.23389460	     -8.13758361	      0.57514643	    -47.16882298	     62.59411588	     88.76525113	     87.47475561	      0.00000000	      0.00000000	    -27.15461256	    -42.23412503	     33.22957722	     88.92975309	     87.48634935	      0.00000000	      0.00000000
      2.88000000	    -34.60756913	     -0.74145969	      0.15331686	     -0.37978839	      0.62092613	     -0.92646535	     93.64580712	    -22.49808554	     -2.55061648	     96.53172980	      1.68479652	     36.22887740	      0.00000000	      0.00000000	     93.58894054	    -19.10003975	      2.17834769	     97.14988887	      1.69558543	     37.87349638	      0.00000000	      0.00000000	    -16.66953298	     -0.31336405	     -8.14283153	      0.45648398	    -47.05434625	     62.36546188	     88.57929311	     87.46027700	      0.00000000	      0.00000000	    -27.23903459	    -42.24208333	     33.05125424	     89.01473498	     87.47730770	      0.00000000	      0.00000000
      2.88500000	    -34.24179442	     -0.57640011	      0.12749091	     -0.37625770	      0.62721744	     -0.92626805	     92.41848210	    -22.48727144	     -2.79499562	     95.68207723	      1.66996728	     36.18993141	      0.00000000	      0.00000000	     92.19069202	    -19.10406035	      1.70414800	     96.23939466	      1.67969431	     37.92747538	      0.00000000	      0.00000000	    -16.12713272	     -0.55662364	     -8.20414224	     -0.06652339	    -46.54263210	     61.57092095	     87.69065505	     87.42862030	      0.00000000	      0.00000000	    -27.60985598	    -42.02552624	     32.56368084	     88.73118740	     87.45851231	      0.00000000	      0.00000000
      2.89000000	    -33.90792476	     -0.36169881	      0.08224645	     -0.37319104	      0.63368594	     -0.92612845	     91.28999322	    -22.42295687	     -2.93803663	     94.74523185	      1.65361625	     36.02885525	      0.00000000	      0.00000000	     90.82525798	    -19.07844401	      1.14925130	     95.20653267	      1.66166746	     37.79212173	      0.00000000	      0.00000000	    -15.59705183	     -0.82008419	     -8.15497623	     -1.01315321	    -46.24025213	     60.11536373	     87.52517529	     87.45259128	      0.00000000	      0.00000000	    -28.05886267	    -41.89466616	     31.66354140	     88.89597415	     87.46788358	      0.00000000	      0.00000000
      2.89500000	    -33.25147996	     -0.61696648	     -0.38835584	     -0.37019583	      0.64165736	     -0.92578415	     89.41922568	    -21.80645113	     -3.63035647	     93.46228708	      1.63122464	     35.68485417	      0.00000000	      0.00000000	     89.22887167	    -19.51250539	      1.06824858	     94.09286638	      1.64223032	     37.67591266	      0.00000000	      0.00000000	    -15.45817101	     -0.63558383	     -7.65747572	     -1.16218287	    -46.23625230	     59.71003766	     87.42401529	     87.40361517	      0.00000000	      0.00000000	    -27.93525379	    -41.65581716	     31.53225709	     88.55712850	     87.45656790	      0.00000000	      0.00000000
      2.90000000	    -33.18523023	     -0.13407729	      0.04026134	     -0.36666333	      0.64753116	     -0.92631152	     88.73602527	    -22.35915444	     -3.47978585	     92.68399669	      1.61764091	     35.49612634	      0.00000000	      0.00000000	     87.97516853	    -18.92205281	      0.27751829	     93.04734702	      1.62398257	     37.59844374	      0.00000000	      0.00000000	    -14.44778097	     -1.09200581	     -8.06708587	     -2.31223965	    -45.71178865	     58.16005995	     86.99397324	     87.41976390	      0.00000000	      0.00000000	    -28.33870812	    -41.67815673	     31.10180719	     88.64579446	     87.45175890	      0.00000000	      0.00000000
